<?xml version="1.0" encoding="utf-8" ?>
<svg xmlns="http://www.w3.org/2000/svg" xmlns:xlink="http://www.w3.org/1999/xlink" width="1024" height="1024">
	<path d="M56.517 0L60.325 0C60.5197 11.9196 59.3404 75.4916 61.3955 81.308C61.5018 87.095 61.434 92.9454 62.0133 98.7068C66.3829 89.0611 76.6232 68.1074 83.1021 60.3468C84.6809 58.4556 86.8752 56.5921 89.1965 55.7094C89.7525 55.4979 90.2309 55.4333 90.8217 55.4496C91.6354 56.2213 91.8916 56.1117 91.9196 57.313C92.0981 64.9684 72.6339 94.0818 66.4744 99.7223C65.4797 100.633 64.9455 101.058 63.5952 101.006L62.2825 99.6953L61.7645 99.9829C60.5214 108.13 61.4429 117.55 61.5015 125.877L61.8806 178.962C65.6227 167.974 84.7402 128.436 92.7598 123.414L93.7939 123.306C94.8341 124.464 94.9332 125.637 94.9012 127.203C94.835 130.45 93.0473 133.786 91.6645 136.666C88.83 142.57 68.5378 178.535 65.908 180.789C65.3574 181.261 64.716 181.574 64.0789 181.906L62.1615 182.901C61.7117 183.535 61.4691 184.043 61.3886 184.826C60.4597 193.864 61.5539 203.995 61.7897 213.108C62.1708 227.832 62.0353 242.66 63.1542 257.345C67.7055 248.715 86.4307 209.702 92.5737 207.067C94.0407 207.115 94.2721 207.228 95.523 208.011C96.5563 209.663 96.5732 211.035 96.1326 212.874C94.7575 218.613 71.0006 259.569 67.2359 261.7C66.0762 262.357 64.4278 262.713 63.1407 263.007C61.9414 268.256 62.469 274.424 62.469 279.811C62.469 290.995 62.6947 302.124 62.9463 313.3C63.1199 321.013 62.7476 328.751 63.2911 336.449C67.2656 328.348 84.5236 293.217 92.2663 290.89C93.1192 290.634 93.3075 290.826 94.1193 291.07C95.3065 292.576 95.3505 294.327 95.1189 296.171C94.6904 299.583 92.867 302.863 91.2355 305.845C88.0634 311.645 68.061 343.214 64.3267 346.056C64.1912 346.159 64.051 346.255 63.9131 346.355C63.1064 357.581 64.7824 368.557 64.3287 379.692C63.2153 383.501 62.7549 420.434 64.34 423.402L64.9701 423.608L65.2717 425.262L65.8967 425.596C67.8616 423.275 68.8338 418.664 70.1039 415.76C74.2924 406.185 84.584 384.826 93.8062 380.219C94.9962 380.209 95.0036 380.144 95.9021 380.906C96.4918 382.287 96.6684 383.236 96.5013 384.744C96.3236 386.348 95.9049 388.031 95.2778 389.519C93.1273 394.622 72.2746 432.268 69.3325 434.332C68.6644 434.801 66.2562 433.97 65.4194 433.773C64.6457 440.028 65.5815 447.188 65.7835 453.522L66.8608 491.705C67.6024 515.443 67.1192 539.261 67.3523 563.016C67.4842 576.465 68.5097 589.883 68.5543 603.337C74.8774 592.063 80.6185 580.327 88.4053 569.947C90.3505 567.354 92.7609 563.996 96.1619 563.521C97.3159 564.073 97.3913 564.248 98.0706 565.35C98.2168 569.505 78.8316 603.53 75.2013 608.192C73.1245 610.86 71.9898 611.279 68.6535 611.615C68.2157 632.619 69.0653 653.867 69.5282 674.878C76.6462 661.685 84.6655 645.506 94.4292 634.308C95.977 632.532 97.6164 630.695 100.045 630.51L100.775 631.376C101.335 636.878 96.9868 643.997 94.528 648.87C90.7353 656.386 79.1761 678.92 73.5016 683.969C72.4567 684.899 71.1245 685.321 69.8188 685.75C68.2825 703.438 71.0254 721.415 69.6717 739.194C82.9871 741.239 94.9737 742.023 108.179 738.813Q99.3799 369.442 104.046 0L110.166 0L109.976 0.418333L108.607 0.807603C107.493 5.02454 108.437 10.1988 108.471 14.544L108.546 39.8393C108.587 56.5654 107.981 73.3453 108.277 90.0613C108.359 94.7298 108.941 99.3477 109.142 104.005C109.407 110.147 108.095 124.726 109.947 129.333C110.314 139.92 109.983 150.589 109.407 161.163C107.061 164.756 108.311 226.628 108.24 236.102C108.174 244.922 107.404 253.707 107.208 262.521C106.88 277.274 107.229 292.045 107.135 306.801C106.995 328.493 106.542 350.548 107.863 372.195L108.442 372.889C109.7 381.736 109.136 390.564 109.139 399.458C109.145 416.057 108.733 432.75 109.154 449.335L111.988 576.5C112.607 617.767 112.698 659.138 114.638 700.368C141.809 701.01 201.261 708.909 220.429 728.869C226.465 735.154 227.445 742.626 227.223 750.945C226.925 762.095 226.569 775.45 222.159 785.787C209.215 793.686 195.161 798.485 180.394 801.621C143.796 809.395 104.305 808.619 67.0895 806.696C45.8109 805.596 25.0858 804.359 4.27748 799.311Q2.13321 798.789 0 798.223L0 791.252C41.4196 802.877 133.301 803.411 175.733 794.83C190.532 791.837 204.29 787.225 217.509 779.816C217.47 772.724 218.441 765.615 218.548 758.505C180.31 782.385 114.031 781.672 70.136 779.696C46.9562 778.652 22.7575 777.173 0 772.41L0 765.78C16.8526 769.006 33.9653 769.914 51.0553 771.046C97.8892 774.147 147.708 776.207 193.173 762.329C205.252 758.642 215.459 753.939 221.631 742.438C220.265 739.458 218.532 736.939 216.183 734.641C196.822 715.7 141.475 707.371 114.549 707.473Q114.438 717.82 114.765 728.162Q117.783 728.853 120.718 729.838C124.786 731.213 129.651 733.611 131.496 737.717C132.311 739.533 132.455 741.631 131.733 743.498C130.173 747.536 125.536 749.933 121.73 751.462C104.144 758.528 69.3504 759.387 52.1457 751.571C48.7401 750.024 45.4666 747.638 44.2576 743.914C43.6225 741.957 43.9441 740.025 44.9805 738.272C48.6476 732.068 57.0444 730.277 63.5009 728.754L63.6196 713.857C63.6229 711.596 64.0216 707.596 62.3371 705.912C52.5728 702.428 12.043 712.43 0 714.654L0 706.525C20.5467 700.272 41.9284 696.389 63.4678 697.976C61.9044 674.91 62.6658 651.602 62.131 628.487Q60.0904 536.355 59.4217 444.205Q54.8656 222.123 56.517 0Z"/>
	<path d="M60.325 0L61.7007 0L61.3955 81.308C59.3404 75.4916 60.5197 11.9196 60.325 0Z"/>
	<path d="M75.3749 0L83.3612 0C80.5589 4.63771 67.513 28.298 64.1058 29.4708L63.5142 28.8109C62.2045 19.7428 71.2214 7.88538 75.3749 0Z"/>
	<path d="M378.877 0L386.003 0L385.083 74.947C384.98 105.761 385.718 136.733 384.908 167.521C384.777 172.479 384.249 177.417 384.075 182.374C383.682 193.525 385.247 210.276 383.528 220.601C382.966 223.976 380.782 230.187 377.956 232.166L377.191 231.843C374.747 225.893 377.388 183.018 377.454 173.5L378.877 0Z"/>
	<path d="M447.958 0L455.182 0C454.538 16.5152 455.176 33.1038 455.099 49.6376C455.006 69.8131 454.298 89.9753 454.452 110.151C454.588 128.011 455.237 146.158 453.978 163.97C453.783 166.728 453.929 169.598 453.477 172.323C453.115 174.508 452.802 176.1 450.969 177.448C449.841 177.247 449.468 177.243 448.653 176.362C447.36 174.964 446.936 172.669 446.854 170.835C446.616 165.478 447.247 160.114 447.428 154.769Q447.841 139.549 447.912 124.323C447.93 82.8793 447.452 41.4537 447.958 0Z"/>
	<path d="M571.988 0L580.937 0C574.839 5.62599 569.308 11.8263 563.602 17.8414L538.19 44.5661C522.834 60.7142 506.833 76.2468 491.425 92.3475C484.593 99.4864 471.824 115.806 464.647 120.759C462.928 121.945 460.348 123.408 458.188 122.89C457.371 122.695 457.335 122.258 456.918 121.598C456.97 118.645 458.803 116.298 460.548 114.048C469.903 101.985 481.731 91.2357 492.379 80.3106C518.679 53.3287 545.978 27.2394 571.988 0Z"/>
	<path d="M853.592 0L860.323 0Q855.373 230.553 855.577 461.152Q853.319 623.77 853.493 786.4C868.476 787.593 882.65 787.459 897.361 783.829L904.394 287.982Q905.085 178.98 907.494 70.0001Q908.076 47.1829 908.324 24.3596C908.448 16.2936 907.967 8.00018 909.153 0L916.206 0C915.454 16.2639 916.074 32.7602 915.986 49.0536C915.948 56.0891 915.363 63.106 915.341 70.1403C915.239 102.985 915.732 135.893 914.937 168.73L909.288 512.8Q906.605 631.736 905.438 750.697C913.616 751.779 922.019 751.793 930.251 752.353C950.517 753.731 990.375 756.81 1004.03 773.145C1006.03 775.543 1007.2 778.193 1007.88 781.233C1009.71 789.5 1009.65 816.287 1008.97 825.524C1008.42 826.491 1007.86 827.477 1007.14 828.325C1002.12 834.196 989.09 839.028 981.971 841.664C938.988 857.579 902.994 862.157 857.681 864.746C830.167 866.318 753.778 862.846 733.004 844.325C731.84 835.771 730.73 806.413 733.132 798.741C735.158 792.271 742.177 788.041 747.614 784.667C769.57 771.038 795.218 762.93 820.663 758.819C824.401 758.215 828.266 757.593 832.049 757.394C836.319 757.169 841.398 758.643 845.271 756.536C846.027 755.5 846.242 755.194 846.352 753.884C846.76 749.03 846.397 743.905 846.404 739.02Q846.374 723.251 846.59 707.483C847.578 658.657 847.624 609.78 847.992 560.942Q850.492 344.145 850.691 127.333C850.784 118.518 851.414 109.708 851.629 100.891Q853.257 50.4581 853.592 0ZM906.331 760.869C904.476 767.559 905.407 775.04 905.664 781.903L906.262 781.801C909.753 781.239 915.154 780.94 918.186 783.175C919.983 784.5 920.533 786.416 920.705 788.547C920.898 790.957 920.011 793.117 918.441 794.918C909.778 804.855 886.918 807.307 874.597 807.786C863.391 808.221 837.225 808.264 829.17 800.249C827.905 798.989 827.066 797.347 827.214 795.519C827.463 792.438 830.387 789.488 832.728 787.755C834.611 786.361 836.709 785.138 838.753 783.995L845.897 783.944C846.355 777.779 846.815 771.605 846.351 765.425C839.726 766.37 833.034 766.483 826.399 767.435C796.352 771.747 764.134 780.27 740.395 799.945L740.759 806.39C748.372 811.069 756.655 813.643 765.119 816.303C774.844 819.322 784.398 821.972 794.519 823.384C844.152 830.307 938.345 823.919 982.521 800.609C988.643 797.378 996.687 792.175 998.985 785.238C999.591 783.407 999.477 781.478 998.49 779.805C994.078 772.337 978.389 769.155 970.474 767.41C949.253 762.732 927.877 762.519 906.331 760.869ZM999.25 801.942C988.786 807.774 979.084 813.566 967.633 817.494C923.47 832.647 875.166 834.863 828.864 833.561C808.929 833 788.383 832.005 769.101 826.548C759.379 823.797 750.299 819.364 740.687 816.461C740.42 821.364 737.765 836.414 740.569 839.989C754.736 846.294 769.48 849.475 784.714 851.913C824.943 858.351 861.629 857.065 901.878 851.917C913.351 850.45 924.913 849.024 936.207 846.495C950.151 843.373 964.476 838.564 977.799 833.452C986.544 830.096 994.22 826.004 1001.11 819.618C1001.09 814.213 1001.84 807.246 1000.23 802.08L999.25 801.942Z"/>
	<path d="M884.597 0L894.124 0C886.6 9.42737 881.028 20.3566 873.212 29.5244C871.185 31.901 867.005 36.9371 863.832 37.1958C863.179 36.6491 863.065 36.5616 862.999 35.6946C862.423 28.1291 879.481 6.47417 884.597 0Z"/>
	<path d="M109.947 129.333C108.095 124.726 109.407 110.147 109.142 104.005C108.941 99.3477 108.359 94.7298 108.277 90.0613C107.981 73.3453 108.587 56.5654 108.546 39.8393L108.471 14.544C108.437 10.1988 107.493 5.02454 108.607 0.807603L109.976 0.418333Q109.288 42.3485 109.52 84.2841C109.58 99.3553 110.57 114.237 109.947 129.333Z"/>
	<path d="M862.708 120.856C861.752 120.722 861.445 120.523 860.753 119.856C860.331 118.49 860.267 117.589 860.631 116.189C863.915 103.564 884.121 73.9034 894.929 67.2795C895.644 67.4213 896.131 67.6651 896.781 67.9814L896.995 68.9611C889.488 87.458 873.946 104.378 862.708 120.856Z"/>
	<path d="M863.726 208.806C862.787 209.697 862.644 210.031 861.383 210.2C860.557 208.86 860.641 207.614 860.844 206.073C862.501 193.505 873.886 171.742 881.759 162.046C884.496 158.675 887.444 156.006 890.926 153.428C891.865 153.427 893.154 153.438 894.039 153.741C895.279 154.165 895.534 154.439 896.097 155.512C895.701 164.952 879.348 182.961 873.77 191.35C870.027 196.978 866.826 202.814 863.726 208.806Z"/>
	<path d="M459.633 178.896C468.98 170.068 480.966 161.927 493.807 159.612C499.215 159.057 504.944 159.394 510.237 160.644C524.674 164.051 533.431 174.945 540.848 187.02C549.239 187.027 556.102 189.109 563.064 193.818C579.462 204.908 587.421 222.041 594.116 240.003C596.734 247.026 599.323 254.129 600.72 261.509C609.966 267.252 615.501 266.67 620.03 278.365C623.113 278.663 626.227 279.088 628.921 280.732C631.62 282.379 633.525 284.844 634.265 287.933C635.476 292.997 633.661 298.577 630.832 302.784C624.576 312.089 613.889 315.033 603.53 317.064C617.164 328.627 646.191 367.476 649.981 384.873C652.935 398.432 644.495 411.142 637.576 422.076C654.095 416.977 669.968 409.08 685.643 401.832C705.552 392.625 725.671 383.943 745.612 374.828C758.949 368.732 772.379 361.631 786.111 356.51C788.2 355.731 790.692 354.853 792.952 355.085C793.827 355.175 794.849 355.595 795.295 356.391C796.703 358.904 795.172 364.639 794.633 367.38C792.089 380.341 788.133 393.066 784.636 405.798C781.135 418.55 777.998 431.387 774.607 444.166C772.136 453.484 769.193 462.848 767.628 472.37C770.297 473.792 772.261 475.088 773.612 477.895C777.161 485.27 774.738 514.224 771.977 522.125C767.873 533.867 759.551 541.703 748.533 547.051C744.478 561.748 741.087 576.65 736.991 591.358C731.844 609.842 726.008 628.177 721.147 646.733C719.189 654.208 716.957 661.791 715.213 669.29C713.337 677.356 712.245 686.704 708.682 694.217C707.576 696.55 706.077 698.904 703.996 700.483C696.794 705.95 685.95 710.159 677.778 714.177C644.712 730.434 611.419 745.935 576.452 757.778C571.873 759.329 567.663 759.844 562.843 759.628C555.096 759.28 547.386 757.318 539.645 756.608Q511.026 754.262 482.322 753.489C474.651 753.343 450.894 756.187 445.593 753.57C442.463 749.46 444.531 739.94 445.006 735.002C438.334 738.298 432.158 742.662 425.559 746.152C421.071 748.526 407.499 754.856 402.823 751.11C400.851 749.53 400.01 746.508 397.31 745.739C395.118 745.115 392.945 746.459 390.428 745.65C387.532 744.718 383.814 743.193 382.496 740.236C381.81 738.698 381.947 736.967 382.548 735.426C384.626 730.096 390.252 727.674 395.047 725.414C390.94 724.386 386.825 723.366 382.782 722.104C356.418 713.877 345.271 698.249 332.999 674.848C324.317 669.646 315.994 663.913 307.226 658.821C286.521 646.797 261.377 635.516 245.214 617.659C205.664 573.967 226.397 518.446 228.787 466.829C229.299 455.772 229.006 444.624 228.773 433.561C228.334 412.737 228.772 388.238 213.569 371.849C205.758 363.429 199.81 363.409 189.117 366.025C186.897 366.567 184.419 367.351 182.118 367.149C180.784 367.031 180.339 366.843 179.527 365.804C179.655 365.091 179.645 364.985 179.937 364.226C180.968 361.55 183.929 359.518 186.416 358.367C193.324 355.171 202.476 354.538 209.555 357.338C221.085 361.898 227.488 375.158 231.91 385.869Q233.69 390.932 234.945 396.149Q236.199 401.367 236.914 406.686C238.248 416.798 238.214 427.039 238.299 437.223Q238.868 469.922 235.607 502.463C233.497 524.33 229.611 548.323 234.736 569.951C240.481 594.194 254.178 614.213 274.777 628.276C282.935 633.845 291.748 638.338 300.303 643.25C309.876 648.747 319.203 654.782 328.624 660.542C328.24 651.733 327.751 641.557 325.203 633.076C320.387 630.018 315.149 628.431 310.714 624.655C311.208 619.002 312.763 613.082 313.888 607.494C319.127 581.466 327.981 556.344 333.714 530.471C339.366 504.961 344.401 479.161 349.367 453.504C351.68 441.555 352.733 428.318 356.857 416.891C352.946 414.774 347.513 412.063 345.184 408.172C344.285 406.669 344.299 405.654 344.722 404.008C348.756 399.926 380.788 396.137 388.697 394.759C391.173 385.505 392.752 376.038 394.952 366.717C397.6 355.494 400.941 344.285 404.343 333.27C398.513 325.34 397.736 331.162 390.297 327.115C390.659 332.282 392.279 340.47 389.289 344.939C388.014 345.448 387.696 345.445 386.611 344.408C383.001 340.959 380.334 335.517 377.261 331.511C371.155 323.551 364.311 315.988 357.931 308.224C335.737 281.213 316.383 260.336 283.194 246.654C275.247 243.378 266.735 240.315 258.306 238.654C236.499 234.356 210.816 246.468 193.238 258.365Q191.901 259.251 190.586 260.17Q189.272 261.089 187.981 262.041Q186.69 262.993 185.423 263.976Q184.156 264.96 182.913 265.974Q181.671 266.989 180.455 268.035Q179.238 269.08 178.048 270.156Q176.858 271.231 175.696 272.336Q174.533 273.441 173.398 274.575Q172.263 275.708 171.157 276.87Q170.051 278.031 168.974 279.22Q167.897 280.408 166.85 281.624Q165.803 282.839 164.787 284.08Q163.771 285.321 162.786 286.587Q161.8 287.852 160.847 289.143Q159.894 290.433 158.974 291.746Q158.053 293.059 157.165 294.395Q156.278 295.731 155.424 297.089Q154.57 298.447 153.75 299.825Q152.93 301.204 152.144 302.603Q151.359 304.001 150.609 305.419Q149.859 306.837 149.144 308.273Q148.43 309.709 147.751 311.162Q147.073 312.616 146.431 314.086Q145.789 315.555 145.184 317.041Q144.579 318.526 144.011 320.026Q143.443 321.526 142.912 323.04Q142.382 324.554 141.89 326.08Q141.397 327.607 140.943 329.145Q140.489 330.684 140.073 332.233Q139.657 333.782 139.28 335.341Q138.904 336.9 138.566 338.468Q138.228 340.036 137.929 341.612Q137.664 343.047 137.432 344.488Q137.201 345.929 137.003 347.375Q136.805 348.821 136.642 350.272Q136.478 351.722 136.348 353.176Q136.219 354.629 136.123 356.086Q136.027 357.542 135.966 359Q135.905 360.458 135.877 361.918Q135.85 363.377 135.857 364.836Q135.864 366.296 135.905 367.755Q135.946 369.214 136.022 370.671Q136.097 372.129 136.207 373.584Q136.316 375.039 136.46 376.492Q136.603 377.944 136.781 379.393Q136.959 380.842 137.17 382.286Q137.382 383.73 137.627 385.168Q137.872 386.607 138.151 388.04Q138.43 389.472 138.742 390.898Q139.055 392.324 139.401 393.742Q139.746 395.16 140.125 396.569Q140.504 397.978 140.916 399.379Q141.328 400.779 141.772 402.169Q142.217 403.559 142.694 404.938Q143.171 406.318 143.68 407.686Q144.189 409.053 144.731 410.409Q145.272 411.764 145.844 413.107Q146.417 414.449 147.021 415.778Q147.625 417.106 148.26 418.42Q148.895 419.735 149.561 421.033Q150.227 422.332 150.923 423.615Q151.619 424.898 152.344 426.164Q153.07 427.43 153.825 428.679Q154.581 429.928 155.365 431.159C160.174 438.591 166.875 444.613 171.577 451.918C172.429 453.242 172.763 454.21 172.452 455.749L171.525 456.329C167.246 456.169 161.576 450.188 158.63 447.362C137.374 426.966 126.221 393.706 125.708 364.695C125.085 329.389 141.524 292.635 165.968 267.466C184.289 248.603 206.551 234.97 232.451 229.467C237.939 228.3 243.652 227.191 249.279 227.136C271.316 226.922 305.522 242.146 323.498 255.321C334.524 263.402 344.159 273.198 353.943 282.694C354.982 280.849 356.21 279.122 357.517 277.457C362.484 271.127 365.93 269.215 373.926 268.218C375.191 265.054 374.406 261.47 375.3 258.163C380.097 240.431 387.117 224.479 399.941 210.966C411.622 198.657 429.118 184.973 445.677 180.492C450.33 179.233 454.83 179.021 459.633 178.896ZM495.789 167.613C487.272 169.235 479.975 172.434 473.019 177.633C492.395 185.021 503.737 194.079 512.436 213.607C518.364 226.912 525.175 258.024 524.868 272.46Q524.821 275.36 524.283 278.21Q523.744 281.061 522.729 283.778C522.05 285.554 521.062 288.445 519.385 289.429C519.258 289.504 519.114 289.543 518.978 289.6C517.953 289.099 518.225 289.47 517.889 288.473C516.606 284.665 516.239 267.036 515.588 261.256C512.883 237.272 500.288 200.182 477.57 187.856C469.335 183.389 461.498 184.574 452.961 187.145C427.886 194.697 403.894 214.883 391.554 237.892Q389.339 242.037 387.558 246.387Q385.778 250.736 384.451 255.245C382.797 260.965 381.998 273.391 378.871 277.255C379.665 278.358 380.425 278.468 381.719 278.705C387.117 279.698 394.061 279.947 399.548 279.602C404.316 279.303 409.014 278.342 413.811 278.467C417.182 278.555 421.064 278.749 424.291 279.756C426.814 280.544 429.529 282.057 432.168 282.255C438.541 282.732 445.163 281.634 451.588 281.771C458.492 281.918 489.816 284.729 494.013 289.746C494.502 290.33 494.514 290.425 494.825 291.033L494.628 291.99C486.295 296.839 443.924 285.571 442.019 292.463L442.968 294.717C446.012 299.767 449.287 304.794 452.008 310.021C463.293 310.563 474.633 311.382 485.931 311.434C522.679 311.603 578.377 307.959 609.693 287.7C610.283 285.816 610.922 283.934 611.439 282.029C609.452 278.635 607.126 274.612 603.978 272.204L602.695 271.95C600.878 273.448 601.378 276.718 599.168 277.285C591.13 270.663 585.994 243.903 581.682 233.397C577.672 223.627 572.029 214.039 564.603 206.466C559.501 201.262 552.998 196.571 546.061 194.19C550.455 207.411 556.884 219.878 561.268 233.167C562.773 237.732 564.222 242.337 565.307 247.022C566.837 253.622 567.856 260.577 570.642 266.8C572.314 270.536 574.759 273.661 578.431 275.588C583.867 278.441 592.025 275.349 596.458 278.602C596.696 279.722 596.84 279.349 596.343 280.181C594.962 282.492 591.825 283.85 589.28 284.281C582.858 285.367 574.558 284.431 569.316 280.451C558.082 271.92 557.22 253.55 553.456 241.088C546.814 219.09 532.482 178.574 510.076 169.311C505.325 167.347 500.841 167.276 495.789 167.613ZM374.131 272.317C374.038 272.498 373.947 272.68 373.853 272.86C373.302 273.906 372.722 275.089 371.832 275.892C367.894 279.446 359.511 280.438 361.663 288.102C363.036 292.995 368.496 296.798 372.834 299.009C377.434 301.354 382.417 302.931 387.312 304.535C389.245 305.039 391.208 305.659 393.17 306.018C394.24 299.147 394.397 293.351 397.97 287.099C392.513 286.77 379.396 287.321 375.731 283.209C374.735 279.723 376.613 275.459 374.131 272.317ZM620.457 284.639C618.68 291.278 615.189 295.177 609.257 298.633C604.251 301.549 598.709 303.478 593.247 305.343C595.071 307.128 596.854 308.975 598.857 310.561C607.228 308.851 618.715 307.273 623.625 299.363C625.22 296.793 625.97 293.323 625.178 290.36C624.488 287.779 622.602 286.07 620.457 284.639ZM411.867 287.679C408.705 288.064 406.169 288.479 404.187 291.193C400.939 295.64 400.312 302.468 401.34 307.675C403.179 316.988 409.164 329.221 417.383 334.493C420.637 336.581 426.574 338.852 427.349 343.111C427.383 343.295 427.374 343.485 427.386 343.672C426.721 344.41 426.604 344.393 425.632 344.432C420.732 344.631 415.377 341.625 411.187 339.371C405.107 357.322 398.62 375.582 397.845 394.674C420.279 406.717 438.816 421.321 456.724 439.428C463.312 446.089 469.753 452.803 474.971 460.626C474.729 453.661 474.262 422.808 478.912 419.041C480.31 417.909 483.212 417.811 484.921 417.791C489.883 417.734 495.093 418.827 500.057 419.265C513.25 420.429 529.841 422.018 542.909 420.957C555.509 419.934 568.003 414.432 579.107 408.618C583.445 406.347 589.668 398.697 594.362 399.156C596.473 400.4 597.695 402.258 599.068 404.243C598.964 406.775 599.047 410.26 597.13 412.218C596.904 412.448 596.608 412.596 596.346 412.785C595.253 410.893 594.941 408.714 593.591 406.978C592.259 407.074 591.829 407.604 590.771 408.349C583.776 413.276 576.599 417.535 569.104 421.652C574.626 420.764 580.111 421.256 585.66 421.572C597.872 422.268 610.831 424.023 622.983 422.191C630.586 415.44 640.637 402.357 641.342 391.863C642.518 374.352 614.707 340.261 602.768 327.246C596.814 320.754 590.274 314.781 584.383 308.242C562.197 315.379 538.398 316.955 515.271 318.33C503.881 319.007 492.431 319.75 481.019 319.554C472.074 319.4 463.135 318.383 454.201 317.917C455.76 324.947 458.013 334.092 453.701 340.576C453.21 341.314 452.774 341.685 451.934 342.009L450.88 341.57C449.312 336.761 449.468 331.378 448.441 326.411C445.693 313.117 437.949 296.834 425.222 290.463C421.299 288.498 416.281 287.409 411.867 287.679ZM384.943 311.426C387.907 317.905 393.319 322.586 399.336 326.165C397.561 322.103 395.957 317.949 394.924 313.628C391.607 312.786 388.327 311.953 384.943 311.426ZM786.466 364.948L717.518 395.581C715.63 411.569 711.926 427.423 707.431 442.869C704.872 451.66 701.801 460.298 699.59 469.189Q676.526 558.726 656.523 648.996L645.399 697.281C643.36 706.247 640.763 715.295 639.762 724.452Q650.907 718.664 662.193 713.155C668.958 709.683 675.702 706.121 682.571 702.859C688.739 699.93 696.4 697.462 701.76 693.289C705.52 681.568 707.612 669.279 710.926 657.409C715.941 639.445 721.782 621.72 726.792 603.761C732.082 584.797 736.605 565.666 742.165 546.767C738.348 545.94 733.794 545.101 731.411 541.66C730.265 540.004 730.106 538.018 730.537 536.09C732.043 529.353 739.732 524.212 744.856 520.118C739.852 520.741 733.907 520.735 729.813 517.339C728.015 515.848 726.83 513.748 726.631 511.405C726.398 508.661 727.66 506.081 729.447 504.076C731.771 501.467 734.925 500 738.041 498.575C736.215 496.073 735.02 493.804 735.499 490.613C735.977 487.429 738.101 485.048 740.665 483.255C745.851 479.628 751.984 478.576 758.044 477.331C766.63 452.646 772.077 426.522 778.383 401.166C781.033 390.514 785.495 377.518 787.348 367.081C787.499 366.233 787.537 365.924 787.203 365.149L786.466 364.948ZM711.345 398.58C687.275 407.473 664.682 421.946 639.759 428.405C637.815 443.52 633.43 458.741 630.04 473.611L615.044 540.677C610.311 561.117 605.331 581.525 600.881 602.026L580.474 699.216C578.497 708.337 568.623 744.35 569.512 750.912C581.005 747.534 592.048 742.938 603.199 738.605C612.767 734.886 622.571 731.458 631.831 727.019C635.962 716.46 637.722 704.724 640.216 693.678L650.882 648.179Q668.431 569.659 688.507 491.748C691.68 479.559 694.149 467.218 697.679 455.118C700.305 446.115 712.465 405.087 711.345 398.58ZM395.193 402.214Q376.149 404.265 357.344 407.907C367.347 414.929 377.757 422.544 386.631 430.939C407.454 450.636 431.097 484.154 436.197 512.465C437.433 519.325 438.113 526.815 438.142 533.776C438.167 539.91 436.76 546.394 438.233 552.402C439.076 555.838 440.902 558.508 443.317 561.056C446.067 563.533 448.806 565.99 451.371 568.661C456.584 566.949 461.68 566.502 467.134 566.105C468.51 549.978 469.457 533.794 470.709 517.652C471.911 502.161 473.532 486.633 473.503 471.083C457.671 447.596 433.013 426.749 409.979 410.639C406.327 408.084 400.14 402.688 395.698 402.201C395.531 402.183 395.362 402.21 395.193 402.214ZM362.392 421.302C361.321 425.169 360.385 428.996 359.644 432.939C381.374 444.373 403.745 469.49 411.043 493.074C415.404 507.169 413.313 522.058 408.11 535.656C413.953 539.259 420.161 542.644 425.729 546.642L429.888 549.597C432.454 517.09 424.165 493.579 405.416 467.364C401.191 461.456 396.913 455.445 392.184 449.929C383.323 439.594 373.184 429.605 362.392 421.302ZM484.548 425.748L483.616 426.122C481.96 431.116 482.357 445.256 481.901 451.255C479.025 489.157 475.292 527.181 474.98 565.232C483.294 563.635 499.706 559.719 506.984 564.627C509.234 566.145 510.654 568.636 511.047 571.302C511.387 573.609 510.843 575.618 509.347 577.415C505.808 581.666 498.633 582.942 493.788 585.34C500.439 586.092 510.635 585.903 515.252 591.323Q515.562 591.68 515.832 592.067Q516.103 592.454 516.331 592.868Q516.56 593.281 516.743 593.717Q516.927 594.152 517.064 594.604Q517.201 595.056 517.289 595.52Q517.378 595.984 517.418 596.455Q517.457 596.926 517.447 597.398Q517.437 597.87 517.377 598.339C516.987 601.509 515.101 604.234 512.594 606.138C505.475 611.547 495.41 609.197 487.097 609.55C491.088 614.867 495.707 621.057 494.535 628.158C494.209 630.13 493.325 631.852 491.631 632.971C489.381 634.456 486.407 634.474 483.868 633.863C478.663 632.611 474.307 628.933 470.201 625.692C467.716 637.981 467.446 650.834 465.413 663.256C460.919 690.718 454.865 718.031 452.229 745.769C476.904 744.882 501.812 744.944 526.38 747.808C538.456 748.78 551.047 750.625 563.123 750.558C568.282 732.451 571.319 713.608 575.02 695.157Q583.206 654.144 592.278 613.317L619.128 496.396C624.257 473.941 629.849 451.503 633.684 428.776C625.11 430.636 615.162 429.146 606.399 429.139C577.862 429.119 549.448 428.14 520.935 427.152C509.203 426.746 496.106 424.827 484.548 425.748ZM358.665 440.241C357.009 447.656 355.986 455.18 354.484 462.624C348.072 494.399 331.918 572.823 349.19 600.475C353.836 607.913 361.022 610.674 369.173 612.497C384.64 615.957 407.519 618.495 423.154 617.136C421.901 607.923 419.997 593.311 422.217 584.382C423.243 575.02 424.534 567.3 429.271 558.998C422.931 552.347 415.1 549.074 407.455 544.301C401.651 540.677 396.043 536.569 389.929 533.478C385.792 535.704 376.304 542.104 371.639 541.265C370.89 541.131 370.753 540.727 370.294 540.189C370.108 537.719 371.084 535.468 372.711 533.634C377.454 528.285 386.26 526.581 393.105 526.368Q394.571 526.324 396.038 526.31C397.74 527.218 399.463 528.081 401.044 529.192C406.312 516.948 406.944 504.865 401.949 492.408C395.53 476.401 382.279 458.937 369.327 447.707C366.014 444.834 362.012 442.955 358.665 440.241ZM767.1 481.157C761.868 482.772 745.303 486.776 742.814 490.762C742.177 491.782 742.272 492.678 742.779 493.726C743.22 494.638 744.564 495.61 745.372 496.153C753.25 497.362 760.246 494.808 767.433 491.887C768.291 489.169 769.654 484.73 768.228 482.007C767.908 481.396 767.842 481.537 767.1 481.157ZM766.883 499.493C764.273 500.907 761.75 501.918 758.855 502.601C752.846 504.019 736.449 504.466 733.661 510.256C734.046 511.641 734.675 512.041 735.685 513.037C741.383 512.837 747.219 512.595 752.833 511.545C757.557 510.661 762.356 508.995 767.14 508.655C768.706 506.575 768.322 504.402 767.968 501.957C767.842 501.091 767.713 500.543 767.302 499.781L766.883 499.493ZM764.846 516.34C759.939 520.313 738.597 532.561 738.077 537.758C738.01 538.419 738.173 538.883 738.447 539.46C746.02 539.533 752.084 535.949 757.35 530.806C760.42 527.807 765.32 522.415 765.135 517.937C765.1 517.095 765.071 517.18 764.846 516.34ZM434.976 563.857C428.864 576.024 426.364 599.911 430.476 612.603C430.756 613.467 431.13 614.023 431.702 614.712L432.442 614.968L434.059 613.674L438.838 609.004C438.964 596.403 440.055 584.404 443.355 572.181C440.61 569.363 437.906 566.482 434.976 563.857ZM333.133 566.831C328.268 578.16 327.26 590.811 324.01 602.634C328.947 605.004 333.834 606.871 339.12 608.293L347.603 610.339C340.154 600.916 336.007 590.887 334.671 578.942C334.237 575.062 334.244 570.54 333.133 566.831ZM493.436 570.171C479.234 573.624 467.481 576.453 452.63 575.896C447.836 585.596 446.782 597.091 448.215 607.729C458.001 611.8 469.965 615.04 477.681 622.432C480.112 624.761 482.671 628.036 486.455 626.79C487.157 625.746 487.299 625.31 486.999 624.051C485.965 619.702 482.236 615.151 479.233 611.966C477.408 609.471 475.702 607.449 475.498 604.244C476.031 602.932 476.115 602.545 477.451 601.869C483.799 598.655 506.98 607.14 510.539 598.899C510.987 597.863 510.94 596.685 510.666 595.62C503.508 588.56 472.837 595.021 471.565 587.307C471.387 586.23 471.679 585.807 472.369 585.069C478.76 583.302 499.399 577.5 503.367 572.661L503.309 571.613C501.263 569.792 498.349 569.729 495.753 569.884C494.968 569.931 494.211 570.048 493.436 570.171ZM321.912 612.108C321.283 614.979 320.885 617.749 320.639 620.677C362.347 640.885 402.754 646.072 448.876 643.791C449.657 640.161 450.559 636.518 451.204 632.864C452.315 628.443 453.301 623.944 454.594 619.576C451.241 618.023 447.14 615.616 443.366 617.016C440.325 618.143 438.879 621.166 437.453 623.851C428.123 625.015 418.673 626.199 409.255 626.117C394.799 625.993 380.236 623.563 365.927 621.655C356.084 620.343 346.021 619.465 336.355 617.139C331.343 615.933 326.638 614.143 321.912 612.108ZM461.666 622.039C460.237 631.407 458.847 641.724 456.124 650.798C446.676 654.073 436.198 653.72 426.32 653.549C395.034 653.008 364.353 648.7 334.865 637.955C336.874 656.266 341.086 673.632 352.875 688.326C366.272 706.153 379.863 714.034 401.974 717.096C417.582 719.258 433.699 719.048 449.379 717.784C451.513 696.568 456.361 675.812 460.334 654.89C462.076 645.717 465.769 632.703 464.943 623.552C464.108 622.547 462.871 622.378 461.666 622.039ZM440.77 725.753C438.061 725.839 434.876 725.674 432.261 726.379C425.636 728.165 416.859 735.49 412.204 740.537C411.798 740.976 411.497 741.412 411.165 741.907L411.603 742.251L412.165 742.01C417.955 739.486 439.171 730.678 441.848 725.786C440.977 725.631 441.332 725.571 440.77 725.753Z"/>
	<path d="M108.442 372.889L107.863 372.195C106.542 350.548 106.995 328.493 107.135 306.801C107.229 292.045 106.88 277.274 107.208 262.521C107.404 253.707 108.174 244.922 108.24 236.102C108.311 226.628 107.061 164.756 109.407 161.163C110.327 207.555 108.486 254.034 108.382 300.425L108.409 349.522C108.458 356.987 109.442 365.571 108.442 372.889Z"/>
	<path d="M862.495 297.751C861.266 297.572 860.568 297.298 859.51 296.649C858.848 295.601 858.66 294.849 858.714 293.631C858.914 289.194 861.509 284.262 863.189 280.189C869.452 265.005 876.246 249.61 888.603 238.339C890.038 238.474 890.819 238.535 892.064 239.342C892.28 239.855 892.331 239.891 892.398 240.537C893.12 247.49 868.076 291.853 862.495 297.751Z"/>
	<path d="M430.295 330.267C425.003 329.887 420.866 326.98 417.29 323.236C411.937 317.632 407.425 309.347 407.77 301.383C407.915 298.03 408.486 295.456 411.059 293.201C411.251 293.266 411.447 293.32 411.634 293.396C412.727 293.837 413.836 294.307 414.096 295.588C414.18 295.999 413.88 297.219 413.832 297.659C413.401 301.572 413.498 304.985 415.073 308.647C418.311 316.172 427.968 323.016 430.338 328.601C430.773 329.628 430.72 329.176 430.295 330.267Z"/>
	<path d="M581.177 345.625C580.038 345.248 579.025 344.826 577.983 344.222C575.183 342.597 572.566 340.17 571.822 336.9C571.401 335.048 571.743 333.196 572.78 331.608C574.849 328.44 578.3 327.754 581.747 327.072C582.492 327.181 582.92 327.295 583.601 327.593C587.442 329.274 588.899 332.766 590.35 336.417C590.137 336.886 589.913 337.35 589.679 337.81C587.618 341.865 585.571 344.222 581.177 345.625Z"/>
	<path d="M541.456 348.464C539.991 348.894 538.604 349.201 537.097 348.787C534.504 348.074 532.479 346.181 531.33 343.786Q531.079 343.271 530.882 342.733Q530.684 342.195 530.542 341.639Q530.4 341.084 530.315 340.518Q530.23 339.951 530.202 339.379Q530.174 338.806 530.205 338.234Q530.235 337.662 530.323 337.095Q530.411 336.529 530.555 335.975Q530.7 335.42 530.9 334.883C532.004 331.954 534.192 330.808 536.899 329.573C539.512 329.257 541.713 329.143 544.147 330.316C546.326 331.367 547.865 333.103 548.516 335.446C549.659 339.56 548.115 342.42 546.204 345.918L541.456 348.464Z"/>
	<path d="M861.537 381.114C861.482 381.138 861.431 381.173 861.373 381.186C860.184 381.453 859.958 381.494 858.905 380.975C858.589 379.645 858.812 378.585 859.089 377.274C861.662 365.102 874.914 337.716 885.662 330.839C886.162 330.984 887.027 331.162 887.492 331.448C888.059 331.798 888.699 332.248 888.833 332.938C889.835 338.087 865.441 374.752 861.537 381.114Z"/>
	<path d="M572.124 388.442C563.449 389.17 553.663 389.385 546.335 383.88C543.157 381.493 540.775 378.089 540.254 374.091C539.805 370.645 540.859 367.273 542.959 364.537C547.952 358.034 556.58 355.85 564.282 354.653C568.235 354.18 572.584 353.94 576.536 354.492C582.25 355.29 587.742 357.462 591.201 362.311C594.566 367.027 594.867 372.262 593.845 377.752C588.069 385.089 580.949 387.271 572.124 388.442Z"/>
	<path d="M64.9701 423.608L64.34 423.402C62.7549 420.434 63.2153 383.501 64.3287 379.692Q64.2861 401.656 64.9701 423.608Z"/>
	<path d="M859.783 464.182C858.602 463.546 857.965 463.052 857.134 461.997C857.157 461.369 857.135 461.232 857.319 460.535C858.285 456.88 860.726 452.999 862.444 449.638C868.901 437.008 875.833 423.117 888.257 415.414C888.816 415.725 889.558 416.258 889.956 416.785C890.59 417.624 890.824 418.639 890.684 419.666C889.916 425.314 869.278 454.156 864.521 459.817C863.109 461.496 861.516 462.848 859.783 464.182Z"/>
	<path d="M114.776 429.409C118.164 424.417 122.244 419.834 127.186 416.348C127.943 416.473 129.146 416.611 129.794 416.999C130.827 417.617 131.346 418.43 131.302 419.658C131.123 424.599 121.958 431.821 118.43 435.131C117.095 435.622 117.004 435.734 115.66 435.333C114.618 433.742 114.849 431.268 114.776 429.409Z"/>
	<path d="M190.968 458.692C183.205 456.449 176.387 452.378 170.245 447.163C166.112 443.653 157.706 436.577 157.733 430.719C157.741 428.922 158.6 428.003 159.7 426.721C166.671 429.928 174.934 441.471 181.037 447.001C184.597 450.226 188.622 452.882 192.162 456.145C192.289 457.379 191.68 457.735 190.968 458.692Z"/>
	<path d="M217.002 456.145C208.694 457.406 201.158 456.983 193.623 452.916C188.972 450.405 183.115 446.374 181.568 441.116C181.839 439.356 182.483 439.284 183.866 438.241C190.058 440.481 194.079 446.371 200.732 448.249C205.664 449.642 215.384 447.905 219.155 451.17C220.109 451.997 220.218 452.416 220.285 453.572C219.468 455.014 218.418 455.436 217.002 456.145Z"/>
	<path d="M73.0374 515.638C72.457 515.319 71.9103 514.974 71.3796 514.576C70.1708 513.672 68.9653 512.626 68.9595 510.966C68.9319 503.046 89.0825 471.119 94.9802 464.497C95.7139 464.812 96.7599 465.152 97.3764 465.646C98.0009 466.146 98.4257 466.67 98.486 467.472C99.0621 475.149 78.7524 508.332 73.0374 515.638Z"/>
	<path d="M0 545.057Q14.6201 528.275 29.8064 512.003C35.3216 505.977 40.7933 499.154 46.9815 493.863C48.6343 492.449 51.0817 490.274 53.3288 490.136C54.5042 490.064 54.9234 490.35 55.9237 490.887C56.464 492.322 56.3363 493.291 55.6985 494.697C52.2391 502.325 8.5031 548.222 0 555.227L0 545.057Z"/>
	<path d="M862.226 555.246L861.484 555.659C860.135 555.487 860.13 555.345 859.166 554.355C858.456 552.377 858.986 550.539 859.706 548.633C863.277 539.18 878.127 513.734 884.989 507.18C886.064 506.153 887.385 505.532 888.725 504.928C890.153 505.156 891.207 505.429 892.526 506.015L892.718 506.673C889.878 515.922 868.792 545.914 862.226 555.246Z"/>
	<path d="M862.165 643.763C861.096 643.959 860.657 643.794 859.677 643.351C859.364 642.75 859.29 642.687 859.123 641.941C857.183 633.256 879.584 603.539 885.821 595.873C886.225 595.88 886.619 595.873 887.019 595.957C888.369 596.243 888.667 596.377 889.408 597.447C889.959 605.914 867.531 636.331 862.165 643.763Z"/>
	<path d="M865.011 715.501C863.551 715.575 862.713 715.642 861.417 714.82C860.937 713.852 860.76 713.52 860.911 712.403C862.044 704.043 877.503 685.766 884.766 680.336C885.28 680.369 886.275 680.352 886.792 680.541C887.983 680.975 888.042 681.52 888.494 682.598C887.956 690.416 871.177 709.89 865.011 715.501Z"/>
	<path d="M456.021 991.628Q454.153 991.827 452.276 991.926C440.062 992.641 427.672 992.046 415.451 991.696Q387.719 990.867 360.086 988.385Q332.454 985.903 305.018 981.777C291.469 979.834 277.489 978.345 264.259 974.813C238.604 967.964 210.228 956.766 190.253 938.885C181.731 931.256 173.121 920.683 172.645 908.729C172.263 899.128 177.41 890.694 183.808 883.977C192.736 874.603 204.928 867.362 216.268 861.195C251.758 841.895 289.224 833.484 328.873 827.733C342.846 825.706 356.779 823.67 370.876 822.703C389.552 821.421 408.286 821.32 426.995 820.776L427.84 820.72C452.761 819.186 477.967 821.454 502.768 823.667C544.322 827.375 587.043 831.845 626.751 845.339C635.655 848.364 644.416 852.145 653.04 855.885C668.107 862.419 683.397 870.156 695.736 881.127C703.36 887.907 709.964 896.724 710.545 907.263C711.195 919.051 707.61 930.581 699.609 939.341C677.946 963.055 643.637 971.918 613.427 978.586C600.597 981.417 587.691 984.54 574.633 986.13C568.298 986.901 561.895 986.912 555.544 987.522C548.538 988.196 541.586 989.177 534.554 989.582C522.76 990.261 511.03 990.127 499.228 990.29Q477.609 990.463 456.021 991.628ZM445.292 828.718C426.632 830.186 407.699 829.375 388.958 830.556C371.221 831.675 353.735 833.751 336.14 836.139C295.261 841.687 254.821 849.154 218.331 869.382C207.318 875.487 196.243 882.99 188.06 892.676C183.645 897.901 179.89 904.283 180.556 911.382C181.315 919.462 187.51 926.605 193.267 931.85C200.836 910.329 220.019 895.357 239.984 885.712C256.107 877.922 273.296 872.792 290.532 868.123C328.992 857.704 367.182 851.466 406.997 850.003C418.717 849.573 430.426 849.26 442.145 849.91Q469.368 850.794 496.485 853.358C507.563 854.304 518.687 855.101 529.705 856.604C539.675 857.964 549.561 860.17 559.439 862.071C596.468 869.199 649.526 880.964 676.327 909.545C683.508 917.204 686.95 925.706 689.997 935.609C696.98 929.19 702.013 921.804 702.373 912.021C702.704 903.024 697.659 895.209 691.669 888.957C684.679 881.663 675.709 876.285 666.948 871.39C617.585 843.805 557.684 836.022 502.044 831.537C485.896 830.236 469.613 828.886 453.412 828.627C450.872 828.587 447.777 828.234 445.292 828.718Z"/>
</svg>
